<?xml version="1.0" encoding="UTF-8"?>
<svg viewBox="0 0 671 430" xmlns="http://www.w3.org/2000/svg" xmlns:xlink="http://www.w3.org/1999/xlink">
 <defs>
  <linearGradient id="a">
   <stop offset="0"/>
   <stop stop-color="#fff" offset="1"/>
  </linearGradient>
  <linearGradient id="l" x1=".445" x2=".554" y1=".442" y2=".555">
   <stop stop-color="#470808" offset="0"/>
   <stop stop-color="#700d0d" offset=".65"/>
   <stop stop-color="#8c1111" offset="1"/>
  </linearGradient>
  <linearGradient id="k" x1=".67" x2=".45" y1=".29" y2=".75">
   <stop stop-color="#470808" offset="0"/>
   <stop stop-color="#a91414" offset=".5"/>
   <stop stop-color="#cd1919" offset="1"/>
  </linearGradient>
  <linearGradient id="f" x1=".405" x2=".59" y1=".57" y2=".43">
   <stop stop-color="#cd1919" offset="0"/>
   <stop stop-color="#ca1919" offset=".5"/>
   <stop stop-color="#8c1111" offset="1"/>
  </linearGradient>
  <linearGradient id="v" x1=".3" x2=".44" y2=".93">
   <stop stop-color="#a91414" offset="0"/>
   <stop stop-color="#cd1919" offset="1"/>
  </linearGradient>
  <linearGradient id="z" x1=".51" x2="-.06" y2=".96">
   <stop stop-color="#700d0d" offset="0"/>
   <stop stop-color="#ca1919" offset="1"/>
  </linearGradient>
  <linearGradient id="x" x1=".25" x2="-.29" y2=".8">
   <stop stop-color="#470808" offset="0"/>
   <stop stop-color="#a91414" offset="1"/>
  </linearGradient>
  <linearGradient id="u" x2=".36" y2="1.19">
   <stop stop-color="#a91414" offset="0"/>
   <stop stop-color="#ca1919" offset="1"/>
  </linearGradient>
  <linearGradient id="y" x1="1" x2=".015" y2=".73">
   <stop stop-color="#700d0d" offset="0"/>
   <stop stop-color="#ca1919" offset="1"/>
  </linearGradient>
  <linearGradient id="w" x1="1" x2=".17" y2=".58">
   <stop stop-color="#700d0d" offset="0"/>
   <stop stop-color="#b51616" offset="1"/>
  </linearGradient>
  <linearGradient id="o" x1="1" x2=".33" y2=".79">
   <stop stop-color="#700d0d" offset="0"/>
   <stop stop-color="#ca1919" offset="1"/>
  </linearGradient>
  <linearGradient id="d" x1=".44" x2=".559" y1=".44" y2=".562">
   <stop stop-color="#9a1212" offset="0"/>
   <stop stop-color="#da1a1a" offset=".7"/>
   <stop stop-color="#ce1919" offset="1"/>
  </linearGradient>
  <linearGradient id="h" x1=".595" x2=".43" y1=".405" y2=".63">
   <stop stop-color="#570a0a" offset="0"/>
   <stop stop-color="#ba1616" offset=".5"/>
   <stop stop-color="#ce1919" offset="1"/>
  </linearGradient>
  <linearGradient id="i" x1=".63" x2=".34" y1=".41" y2=".591">
   <stop stop-color="#570a0a" offset="0"/>
   <stop stop-color="#9a1212" offset="1"/>
  </linearGradient>
  <linearGradient id="t" x1="1" x2=".88" y2="1.04">
   <stop stop-color="#570a0a" offset="0"/>
   <stop stop-color="#bd1717" offset="1"/>
  </linearGradient>
  <linearGradient id="s" x2=".47" y2="1.15">
   <stop stop-color="#9a1212" offset="0"/>
   <stop stop-color="#da1a1a" offset="1"/>
  </linearGradient>
  <linearGradient id="p" x1="1" x2=".52" y1=".25" y2="1.25">
   <stop stop-color="#ba1616" offset="0"/>
   <stop stop-color="#da1a1a" offset="1"/>
  </linearGradient>
  <linearGradient id="r" x1="1" x2=".645" y2="1.04">
   <stop stop-color="#570a0a" offset="0"/>
   <stop stop-color="#bd1717" offset="1"/>
  </linearGradient>
  <linearGradient id="q" x1="1" x2="-.07" y2=".28">
   <stop stop-color="#ba1616" offset="0"/>
   <stop stop-color="#da1a1a" offset="1"/>
  </linearGradient>
  <linearGradient id="n" x1="-.47" x2="1.28" y1="1.17" y2=".05" xlink:href="#a"/>
  <linearGradient id="m" x1="1" x2="-.5" y1="2" y2="-2.5" xlink:href="#a"/>
  <linearGradient id="g" x1="3" x2="-.25" xlink:href="#a"/>
  <linearGradient id="j" x1="-.6" x2="2" y1="1.2" y2="-1" xlink:href="#a"/>
  <linearGradient id="e" x1=".7" x2=".1" y1="1.4" y2=".1" xlink:href="#a"/>
  <linearGradient id="c" x1="-1.9" y1="-1.9" y2="1" xlink:href="#a"/>
  <radialGradient id="b">
   <stop stop-color="#bd1717" offset="0"/>
   <stop stop-color="#bd1717" stop-opacity="0" offset="1"/>
  </radialGradient>
 </defs>
 <g transform="matrix(.053,0,0,-.053,0,430)">
  <path d="m3547 7823c-3-5-42-127-87-273-123-400-169-546-200-645-15-49-44-144-65-210-20-66-70-226-110-355s-142-455-225-725c-84-269-183-589-221-711s-69-226-69-231c0-10 159-118 1622-1097l848-566 28 39c16 22 34 53 40 68s203 665 438 1443c474 1569 453 1485 400 1594-16 33-44 69-69 89-95 76-2200 1549-2239 1567-45 20-84 26-91 13z" fill="#8c1111"/>
  <path d="m3490 7833c-67-13-2070-435-2101-443-48-13-113-62-143-107-37-56-987-2834-993-2905-5-54-4-58 15-58 11 0 157 20 324 45s676 99 1132 164c455 66 830 122 833 125 6 5 80 242 303 961 83 270 185 596 225 725s90 289 110 355c21 66 50 161 65 210 120 384 282 910 284 919 1 12-20 15-54 9z" fill="#cd1919"/>
  <path d="m2558 4655c-3-4-332-53-729-111-1065-153-1563-226-1568-230-2-2 1-22 8-44 27-90 36-96 1243-829 720-437 1155-696 1184-703 42-12 164-1 1127 96 609 61 1098 115 1121 123 53 18 94 49 81 61-5 5-426 287-935 627s-1055 706-1213 812c-299 201-309 208-319 198z" fill="#470808"/>
  <path d="m2474 4434 2386-1489c149 17 198 41 262 217l-2382 1555z" fill="url(#l)"/>
  <path d="m2382 4780 377-76 973 3043c-159 103-171 102-347 64z" fill="url(#f)"/>
  <path d="m285 4488c-68-221-21-262 102-349l2111 279-112 373z" fill="url(#k)"/>
  <path d="m2669 4602-229 1 132 146z" fill="url(#o)"/>
  <path d="m2385 4791 56-187 131 144z" fill="url(#v)"/>
  <path d="m2759 4704-91-101-96 145z" fill="url(#z)"/>
  <path d="m2497 4418 171 185-227 1z" fill="url(#x)"/>
  <path d="m2441 4604 131 144-25-111z" fill="url(#u)"/>
  <path d="m2668 4603-96 145-26-111z" fill="url(#y)"/>
  <path d="m2668 4603-227 1 106 34z" fill="url(#w)"/>
  <path d="m4296 5768c-58-16-138-98-167-173-33-86-33-243 1-330 57-148 147-232 261-243 143-14 258 119 267 308 2 48-1 111-8 143-28 135-127 261-230 291-60 18-69 18-124 4z" fill="url(#n)"/>
  <g fill="url(#g)">
   <path d="m2864 7432c-212-74-403-412-330-587 30-71 112-87 212-41 68 31 182 143 232 227 103 175 107 363 8 404-45 19-59 18-122-3z"/>
   <path d="m1500 7144c-142-81-265-256-292-416-14-80-5-130 32-171 25-29 34-32 82-32 93 1 206 85 293 216 106 159 133 326 65 399-24 26-35 30-82 30-38 0-65-7-98-26z"/>
   <path d="m2260 5591c-122-37-276-209-329-366-42-127-37-216 17-276 99-110 337 37 447 276 60 129 70 245 29 315-30 50-97 71-164 51z"/>
   <path d="m925 5368c-161-58-321-289-333-479-3-59 0-84 13-113 88-186 420 57 491 360 40 173-39 279-171 232z"/>
  </g>
  <g fill="url(#m)">
   <path d="m2246 4259c-89-21-98-66-30-139 99-106 353-200 541-200 182 0 202 89 44 194-156 104-431 176-555 145z"/>
   <path d="m2370 3180c-41-10-70-42-63-70 9-33 96-104 176-143 114-56 236-88 353-94 123-7 164 8 164 59 0 85-250 216-474 247-87 12-106 12-156 1z"/>
  </g>
  <path d="m11500 3970c-481-159-1109-365-1396-459l-520-171-17-72c-9-40-116-512-237-1048s-270-1195-331-1464c-91-399-109-490-98-497 8-5 44-9 81-9 65 0 120 20 1314 466 796 298 1263 478 1292 498 26 17 59 51 74 76 21 35 107 350 388 1430 198 762 354 1339 355 1425 0 45-12 115-23 114-4 0-401-131-882-289z" fill="#570a0a"/>
  <path d="m7176 5203c-14-21-30-51-35-68-6-16-128-655-271-1419-198-1052-260-1399-255-1430 4-23 18-64 31-93 23-47 119-132 1094-972 587-506 1086-929 1107-941 21-11 39-17 40-13 3 11 193 846 443 1953 116 514 220 972 231 1018 10 46 19 88 19 92 0 5-528 431-1172 946-645 516-1181 944-1190 952-15 12-19 10-42-25z" fill="#9a1212"/>
  <path d="m8571 5685c-1019-298-1282-379-1315-402-22-16-41-34-41-41 0-6 532-437 1182-957l1183-946 1082 355c596 195 1224 401 1397 458s316 108 318 114c12 37-88 115-1178 915-618 453-1148 836-1178 852-101 51-42 65-1450-348z" fill="#ce1919"/>
  <path d="m7372 5326c-25-7-67-19-90-29-84-38-129-102-147-189l-9-48 1140-922c629-508 1164-933 1189-946l56-29 90-16 51 8c99 17 158 145 114 249-14 34-84 109-157 168z" fill="url(#d)"/>
  <path d="m9387 3243-326-1403-336-1460 74-62c65-58 96-68 168-69 49-1 114 18 174 41l664 2958z" fill="url(#i)"/>
  <path d="m10923 3967c-721-243-1267-428-1271-431l37-205 91-180 1304 437 1299 439 13 52c19 87 11 131-14 192-23 45-79 86-141 136z" fill="url(#h)"/>
  <path d="m9387 3243 396-91-176 159z" fill="url(#t)"/>
  <path d="m9387 3243 185 206 36-139z" fill="url(#s)"/>
  <path d="m9718 3344-146 104 35-138z" fill="url(#p)"/>
  <path d="m9718 3345 65-193-176 158z" fill="url(#r)"/>
  <path d="m9652 3536-80-88 146-104z" fill="url(#q)"/>
  <path d="m9808 3310a201 201 0 1 0 -402 0 201 201 0 1 0 402 0" fill="url(#b)"/>
  <g fill="url(#c)">
   <path d="m9671 5805c-106-30-158-86-145-154 17-81 158-183 310-221 97-25 248-27 324-4 67 20 130 78 130 119 0 96-134 202-315 250-88 24-238 28-304 10z"/>
   <path d="m8075 5333c-85-19-147-64-165-119-32-97 110-224 309-275 98-26 245-28 324-5 61 18 123 64 138 104 37 97-109 232-307 282-73 19-241 26-299 13z"/>
   <path d="m10405 5293c-143-32-202-102-165-197 24-63 160-155 280-190 245-71 480-11 480 122 0 71-109 174-234 221-110 41-281 62-361 44z"/>
   <path d="m8797 4800c-27-5-74-21-104-35-156-77-108-229 102-330 95-46 191-67 305-68 120-1 197 22 252 73 33 32 38 43 38 81 0 94-91 182-249 239-118 43-239 57-344 40z"/>
   <path d="m11130 4760c-117-21-180-71-180-141 0-50 17-84 67-130 110-105 299-167 472-156 109 7 156 23 203 68 31 29 38 43 38 73 0 107-125 211-319 265-84 23-217 33-281 21z"/>
   <path d="m9463 4236c-96-30-143-80-143-151 0-50 20-84 81-139 107-96 244-141 429-141 109 0 132 3 176 23 138 62 151 170 32 277-103 92-262 145-432 144-56 0-120-6-143-13z"/>
  </g>
  <g fill="url(#j)">
   <path d="m11842 3682c-253-90-468-476-346-622 102-121 369 24 499 272 123 234 42 419-153 350z"/>
   <path d="m10785 2491c-150-71-287-238-330-402-20-72-18-116 4-166 25-55 67-77 135-71 147 12 317 159 407 353 59 126 49 264-22 300-47 25-126 19-194-14z"/>
   <path d="m9760 1314c-199-99-368-367-330-525 22-92 97-125 206-91 233 73 453 404 380 575-22 53-50 71-119 75-56 3-70 0-137-34z"/>
  </g>
  <g fill="url(#e)">
   <path d="m7830 3088c-34-18-52-36-75-78-59-109-43-312 36-460 90-169 243-253 340-187 76 51 103 126 97 272-7 155-61 286-161 385-81 82-164 106-237 68z"/>
   <path d="m7006 2780c-77-23-126-121-126-248 0-98 19-175 70-277 85-175 231-259 331-192 112 73 119 327 16 522-47 87-133 170-198 189-59 18-53 17-93 6z"/>
   <path d="m8335 1630c-30-12-72-60-90-104-78-187 48-531 227-620 135-67 240-1 268 169 33 201-103 483-265 551-37 15-108 18-140 4z"/>
   <path d="m8725 3428c-76-41-115-116-122-234-11-155 48-320 153-434 67-72 121-100 195-100 73 0 118 31 155 106 118 241-84 675-313 674-26 0-57-6-68-12z"/>
   <path d="m7305 4528c-47-41-72-91-85-171-25-159 42-361 159-478 115-115 239-111 304 9 84 155 35 421-107 579-58 64-115 93-184 93-43 0-57-5-87-32z"/>
  </g>
 </g>
</svg>
